<svg width="18" height="18" viewBox="0 0 18 18" fill="none" xmlns="http://www.w3.org/2000/svg">
<path d="M0.5625 11.1375C0.711684 11.1375 0.854758 11.1967 0.960248 11.3022C1.06574 11.4077 1.125 11.5508 1.125 11.7V14.5125C1.125 14.8108 1.24353 15.097 1.4545 15.3079C1.66548 15.5189 1.95163 15.6375 2.25 15.6375H15.75C16.0484 15.6375 16.3345 15.5189 16.5455 15.3079C16.7565 15.097 16.875 14.8108 16.875 14.5125V11.7C16.875 11.5508 16.9343 11.4077 17.0398 11.3022C17.1452 11.1967 17.2883 11.1375 17.4375 11.1375C17.5867 11.1375 17.7298 11.1967 17.8352 11.3022C17.9407 11.4077 18 11.5508 18 11.7V14.5125C18 15.1092 17.7629 15.6815 17.341 16.1034C16.919 16.5254 16.3467 16.7625 15.75 16.7625H2.25C1.65326 16.7625 1.08097 16.5254 0.65901 16.1034C0.237053 15.6815 0 15.1092 0 14.5125V11.7C0 11.5508 0.0592632 11.4077 0.164752 11.3022C0.270242 11.1967 0.413316 11.1375 0.5625 11.1375Z" fill="white"/>
<path d="M8.60176 13.3358C8.65401 13.3881 8.71608 13.4297 8.78442 13.4581C8.85276 13.4864 8.92602 13.501 9.00001 13.501C9.074 13.501 9.14726 13.4864 9.2156 13.4581C9.28393 13.4297 9.34601 13.3881 9.39826 13.3358L12.7733 9.96075C12.8789 9.85513 12.9382 9.71187 12.9382 9.5625C12.9382 9.41313 12.8789 9.26987 12.7733 9.16425C12.6676 9.05863 12.5244 8.99929 12.375 8.99929C12.2256 8.99929 12.0824 9.05863 11.9768 9.16425L9.56251 11.5796V1.6875C9.56251 1.53832 9.50325 1.39524 9.39776 1.28975C9.29227 1.18426 9.14919 1.125 9.00001 1.125C8.85082 1.125 8.70775 1.18426 8.60226 1.28975C8.49677 1.39524 8.43751 1.53832 8.43751 1.6875V11.5796L6.02326 9.16425C5.91764 9.05863 5.77438 8.99929 5.62501 8.99929C5.47564 8.99929 5.33238 9.05863 5.22676 9.16425C5.12114 9.26987 5.0618 9.41313 5.0618 9.5625C5.0618 9.71187 5.12114 9.85513 5.22676 9.96075L8.60176 13.3358Z" fill="white"/>
</svg>
