<svg width="30" height="30" viewBox="0 0 30 30" fill="none" xmlns="http://www.w3.org/2000/svg">
<g clip-path="url(#clip0_11_63)">
<path d="M25.3125 21.9844C25.3125 27.6562 20.7188 27.6562 15 27.6562C9.28125 27.6562 4.6875 27.6562 4.6875 21.9844C4.6875 16.3125 9.32812 7.03125 15 7.03125C20.6719 7.03125 25.3125 16.2656 25.3125 21.9844Z" fill="#DBB471"/>
<path opacity="0.5" d="M25.3125 21.9844C25.3125 20.0625 24.7969 17.7188 23.8594 15.4688C24.0469 16.9219 23.6719 19.5 19.2188 20.4844C12.8906 21.8438 16.1719 23.625 13.6875 23.8594C11.5781 24.0469 5.95313 23.2031 4.82813 20.0156C4.73438 20.7188 4.64062 21.375 4.64062 22.0312C4.6875 27.6562 9.32813 27.6562 15 27.6562C20.6719 27.6562 25.3125 27.6563 25.3125 21.9844Z" fill="#89664C"/>
<path d="M17.7656 19.2656C17.5781 18.3281 16.7813 18.0469 15.9375 18V16.6875C16.1719 16.7812 16.4531 16.9219 16.6406 17.0625C17.0156 17.2969 17.3906 16.6875 17.0156 16.4531C16.6875 16.2656 16.3125 16.0781 15.9375 15.9375V14.3906C15.9375 13.9219 15.2344 13.9219 15.2344 14.3906V15.75C14.8594 15.7031 14.4844 15.7031 14.1094 15.75C14.0625 15.4219 13.9688 15.0937 13.875 14.7656C13.7813 14.2969 13.0781 14.4844 13.2188 14.9531C13.3125 15.2812 13.3594 15.6094 13.4531 15.9375C13.4063 15.9375 13.4063 15.9375 13.3594 15.9844C12.4219 16.3594 11.8125 17.2969 12.5156 18.1875C12.8438 18.6094 13.2656 18.75 13.7344 18.8438C13.7813 19.4531 13.7813 20.0625 13.7813 20.6719C13.4531 20.4844 13.1719 20.2031 12.9375 19.9687C12.6094 19.6406 12.1406 20.1563 12.4219 20.4844C12.8438 20.9531 13.3125 21.2813 13.7813 21.5156C13.7813 22.0313 13.8281 22.5469 13.875 23.0625C13.9219 23.5313 14.625 23.5313 14.5781 23.0625C14.5313 22.5938 14.4844 22.1719 14.4844 21.7031C14.7656 21.75 15.0469 21.75 15.3281 21.75C15.375 22.2188 15.4219 22.6875 15.4688 23.2031C15.5156 23.6719 16.2188 23.6719 16.1719 23.2031C16.125 22.6875 16.0781 22.1719 16.0313 21.6094C17.0625 21.2344 18 20.4375 17.7656 19.2656ZM15.2344 16.4531V18C15 18 14.8125 18.0469 14.625 18.0469H14.3906L14.25 16.3594C14.5781 16.3594 14.9063 16.4062 15.2344 16.4531ZM13.5469 17.9531C13.3594 17.9062 13.1719 17.7656 12.9844 17.625C12.5625 17.2031 13.1719 16.8281 13.5469 16.6406C13.5938 17.1094 13.6406 17.5313 13.6875 18C13.6406 18 13.5938 18 13.5469 17.9531ZM15.0938 20.9531C14.8594 21 14.6719 20.9531 14.4844 20.9062C14.4375 20.2031 14.4375 19.5 14.4375 18.75C14.7188 18.75 15 18.7031 15.2813 18.7031C15.2813 19.4531 15.3281 20.1562 15.3281 20.9062C15.2344 20.9531 15.1875 20.9531 15.0938 20.9531ZM16.6406 20.4375C16.4531 20.5781 16.2188 20.6719 16.0313 20.7656C15.9844 20.0625 15.9844 19.4063 15.9844 18.7031H16.2188C17.1094 18.8906 17.3438 19.875 16.6406 20.4375Z" fill="#89664C"/>
<path d="M15.9375 25.7812H14.8594V27.6562L19.2187 30L29.0625 26.9531V25.3125L25.4531 23.2031L15.9375 25.7812Z" fill="#699635"/>
<path d="M15 24.7031C15 24.7031 16.125 26.5312 19.3125 28.125C19.3125 28.125 24.2812 27.8906 29.0625 24.7031C29.0625 24.7031 26.2969 23.3438 25.5 21.5625C25.5 21.5625 23.625 24.1875 15 24.7031Z" fill="#83BF4F"/>
<path d="M12.8906 25.7344L13.9219 25.6875L14.0625 27.4219L9.98437 30L0.1875 27.8906L0.046875 26.3438L3.375 24.0469L12.8906 25.7344Z" fill="#699635"/>
<path d="M13.6875 24.6562C13.6875 24.6562 12.7031 26.4844 9.75 28.2188C9.75 28.2188 4.92188 28.3594 0 25.7813C0 25.7813 2.625 24.2813 3.23438 22.5C3.23438 22.5 5.29688 24.8437 13.6875 24.6562Z" fill="#83BF4F"/>
<path d="M11.3438 25.1719C11.3438 25.1719 11.2031 25.5469 11.8594 25.5937L10.125 27.0469C10.125 27.0469 9.09375 26.9531 8.85937 27.6562C8.85937 27.6562 4.64063 27.1875 1.92187 25.9687C1.92187 25.9687 2.48438 25.5469 1.78125 25.2656C1.78125 25.2656 2.57813 24.7031 2.76563 24.1875C2.76563 24.1875 3.51562 24.2812 3.75 23.7187C3.84375 23.6719 6.65625 25.3594 11.3438 25.1719V25.1719Z" stroke="#699635" stroke-miterlimit="10"/>
<path d="M4.125 25.8281C4.61688 25.8281 5.01562 25.5553 5.01562 25.2188C5.01562 24.8822 4.61688 24.6094 4.125 24.6094C3.63312 24.6094 3.23438 24.8822 3.23438 25.2188C3.23438 25.5553 3.63312 25.8281 4.125 25.8281Z" fill="#699635"/>
<path d="M8.90625 24.4687C8.90625 24.4687 7.82812 25.875 5.48437 27.7969L5.625 29.0625L3.98437 28.6875L3.89062 27.3281C3.89062 27.3281 6.28125 25.125 6.79687 24.0469C6.75 24.0469 7.59375 24.3281 8.90625 24.4687ZM19.7344 24.1406C19.7344 24.1406 20.1562 25.2656 23.3437 27.3281V28.6875L25.1719 28.125V26.7187C25.1719 26.7187 22.9688 25.1719 21.6562 23.625L19.7344 24.1406Z" fill="#F9F3D9"/>
<path d="M17.0625 22.6406L16.0313 22.5938L15.9375 24.5156L20.1094 27.1875L29.9062 24.5156L29.9531 22.8281L26.5312 20.4375L17.0625 22.6406Z" fill="#699635"/>
<path d="M16.2188 21.4687C16.2188 21.4687 17.25 23.4375 20.2969 25.2188C20.2969 25.2188 25.1719 25.2188 30 22.2188C30 22.2188 27.3281 20.6719 26.6719 18.75C26.6719 18.75 24.6562 21.375 16.2188 21.4687Z" fill="#83BF4F"/>
<path d="M18.3281 21.9844C18.3281 21.9844 18.5625 22.3594 17.8125 22.5L19.7813 24.0469C19.7813 24.0469 20.9063 23.7656 21.2813 24.4219C21.2813 24.4219 25.9688 23.5781 28.125 22.4531C28.125 22.4531 27.4219 22.125 28.125 21.7031C28.125 21.7031 27.2812 21 26.9531 20.5313C26.9531 20.5313 26.1563 20.7656 25.7344 20.2031C25.7344 20.25 24.0469 21.75 18.3281 21.9844V21.9844Z" stroke="#699635" stroke-miterlimit="10"/>
<path d="M21.9375 23.1563C21.75 23.3907 21.1406 23.4844 20.625 23.3438C20.1094 23.2032 19.875 22.875 20.0625 22.6407C20.25 22.4063 20.8594 22.3125 21.375 22.4532C21.8906 22.5938 22.125 22.875 21.9375 23.1563Z" fill="#699635"/>
<path d="M21 21.0937C21 21.0937 22.125 22.5937 24.5156 24.6094L24.4688 26.0156L26.1094 25.5469L26.1562 24.0469C26.1562 24.0469 23.7188 21.7031 23.1094 20.5781C23.1562 20.5781 22.3594 20.9062 21 21.0937Z" fill="#F9F3D9"/>
<path d="M21.5625 0.9375C21.5625 3.79688 17.8594 8.4375 15 8.4375C12.1406 8.4375 8.4375 4.26562 8.4375 1.40625C8.4375 -1.45312 8.85938 1.40625 11.7188 1.40625C12.1406 1.40625 14.1094 0 15 0C15.6094 0 17.3438 1.40625 18.2812 1.40625C20.7656 1.40625 21.5625 -1.21875 21.5625 0.9375Z" fill="#DBB471"/>
<path d="M14.1563 6.23438C13.875 6.42188 12.5156 6.28126 12.0938 6.60938C11.5313 7.03126 12.3281 8.01563 11.7656 8.62501C10.6406 9.75001 9.75001 11.0156 10.0313 11.7188C10.5 12.9375 11.3906 9.46876 12.1875 10.7813C12.9844 12.0938 12.8438 9.89063 14.0625 11.0156C15.2813 12.1406 14.25 9.00001 15.4219 10.3594C16.5938 11.7188 16.6406 13.2656 17.4844 13.2656C18.4688 13.2656 16.4531 9.56251 17.7656 10.4531C19.0781 11.3438 20.5313 11.0156 19.2188 9.65626C18.7969 9.23438 18.2344 8.48438 17.5781 7.82813C17.3438 7.59376 17.5313 6.37501 17.2969 6.18751C17.0156 5.95313 16.3125 6.70313 16.0313 6.56251C15.4688 6.28126 15.6563 6.79688 14.8125 6.93751C14.25 7.12501 14.7188 5.85938 14.1563 6.23438Z" fill="#89664C"/>
<path d="M8.76562 9.00001C10.5937 7.26563 13.9219 8.25001 15.8906 9.09376C17.8125 9.93751 18.9844 7.26563 17.7656 5.90626C17.0625 5.10938 15.9375 6.04688 15.5156 6.60938C15.0469 7.17188 14.6719 7.78126 14.1562 8.34376C13.4062 9.18751 11.5781 8.48438 12.1406 7.31251C12.75 6.09376 15.3281 7.50001 16.1719 7.73438C17.8125 8.20313 19.5469 8.39063 21.1875 7.78126C21.75 7.59376 21.5156 6.65626 20.9531 6.89063C19.125 7.54688 17.2969 7.12501 15.5625 6.56251C14.6719 6.28126 13.2656 5.53126 12.3281 5.95313C9.65625 7.21876 12.1406 10.8281 14.3906 9.42188C14.9062 9.09376 15.2344 8.57813 15.6094 8.10938C15.8437 7.82813 17.0156 6.04688 17.2969 6.93751C17.4375 7.40626 17.2969 8.25001 16.7812 8.39063C16.4531 8.53126 15.7969 8.06251 15.4687 7.96876C14.8594 7.73438 14.25 7.54688 13.5937 7.40626C11.8594 7.03126 9.51562 7.12501 8.15625 8.39063C7.6875 8.76563 8.34375 9.42188 8.76562 9.00001Z" fill="#E8E8E8"/>
<path d="M21 0.234375C20.5312 0.609375 19.6875 1.40625 18.2812 1.40625C17.3438 1.40625 15.6094 0 15 0C14.1094 0 12.1406 1.40625 11.7188 1.40625C10.1719 1.40625 9.32812 0.609375 8.90625 0.28125C8.90625 0.28125 9.42187 2.39062 11.0156 3.46875C12.1875 4.21875 12.0469 3.32812 12.6562 2.48438C13.2656 1.64063 13.6875 1.21875 14.7656 3.32812C15.3281 4.5 16.4062 0.140625 17.25 1.54688C18.7969 4.125 19.3594 2.71875 21 0.234375Z" fill="#89664C"/>
<path d="M24.5625 24.5625L24.5156 25.9688L26.1563 25.5L26.2031 24C26.2031 24.0469 25.2188 24.4219 24.5625 24.5625ZM23.3438 27.375V28.7344L25.1719 28.1719V26.7656C25.125 26.7187 24.6563 27 23.3438 27.375ZM5.48438 27.75L5.62501 29.0625L3.98438 28.6875L3.89063 27.3281C3.84376 27.3281 4.50001 27.5625 5.48438 27.75Z" fill="#DBB471"/>
</g>
<defs>
<clipPath id="clip0_11_63">
<rect width="30" height="30" fill="white"/>
</clipPath>
</defs>
</svg>
