<svg width="132" height="122" viewBox="0 0 132 122" fill="none" xmlns="http://www.w3.org/2000/svg">
<g clip-path="url(#clip0_11_34)">
<path d="M31.7628 94.0881L19.1643 52.9677C17.9044 48.8556 20.7454 44.305 25.4776 42.8551L90.0075 23.0844C94.7396 21.6346 99.6422 23.8127 100.902 27.9248L113.501 69.0453C114.76 73.1573 111.919 77.708 107.187 79.1578L42.6574 98.9285C37.9252 100.378 33.0227 98.2002 31.7628 94.0881Z" fill="#FF9800"/>
<path d="M105.483 42.8777L104.338 39.1395L78.5261 47.0477C76.16 47.7727 73.7087 46.6836 73.0788 44.6276C72.4488 42.5715 73.8693 40.2962 76.2354 39.5713L78.3864 38.9123L77.2411 35.174L75.0901 35.8331C70.3579 37.2829 67.5169 41.8336 68.7768 45.9456C70.0366 50.0576 74.9392 52.2358 79.6714 50.786L86.1244 48.8089L89.5603 60.0236L83.1074 62.0006C77.0846 63.8459 73.6122 69.4078 75.2157 74.6413C76.8191 79.8748 82.8112 82.537 88.834 80.6918L93.1359 79.3737L91.9906 75.6355L87.6886 76.9535C84.0319 78.0739 80.4912 76.5008 79.5177 73.3233C78.5441 70.1458 80.596 66.8592 84.2527 65.7389L110.065 57.8306L108.919 54.0924L93.8623 58.7055L90.4264 47.4908L105.483 42.8777Z" fill="#FFD54F"/>
<path d="M52.9934 71.227L46.5404 73.204L43.1045 61.9893L49.5575 60.0123C54.2896 58.5624 57.1306 54.0118 55.8708 49.8997C54.6109 45.7877 49.7084 43.6095 44.9762 45.0594L38.5232 47.0364L39.6685 50.7747L46.1215 48.7976C48.4876 48.0727 50.9389 49.1618 51.5688 51.2178C52.1987 53.2738 50.7782 55.5491 48.4121 56.2741L22.6002 64.1823L23.7455 67.9206L38.8025 63.3074L42.2384 74.5221L27.1815 79.1352L28.3268 82.8735L54.1387 74.9652C57.7954 73.8448 61.3362 75.418 62.3097 78.5954C63.2832 81.7729 61.2314 85.0595 57.5747 86.1798L53.2727 87.4979L54.418 91.2361L58.72 89.9181C64.7428 88.0728 68.2151 82.5109 66.6117 77.2774C65.0082 72.0439 59.0162 69.3817 52.9934 71.227Z" fill="#FFD54F"/>
</g>
<defs>
<clipPath id="clip0_11_34">
<rect width="107.985" height="93.8338" fill="white" transform="translate(0.964722 31.9644) rotate(-17.0341)"/>
</clipPath>
</defs>
</svg>
