<svg width="98" height="88" viewBox="0 0 98 88" fill="none" xmlns="http://www.w3.org/2000/svg">
<path d="M15.2918 65.0959L11.9687 29.3513C11.6364 25.7769 14.7358 22.5389 18.8562 22.1558L75.0444 16.9322C79.1648 16.5491 82.808 19.1603 83.1403 22.7347L86.4634 58.4793C86.7957 62.0538 83.6963 65.2917 79.5758 65.6748L23.3877 70.8984C19.2672 71.2815 15.6241 68.6704 15.2918 65.0959Z" fill="#FF9800"/>
<path d="M84.3487 35.7328L84.0466 32.4833L61.5713 34.5727C59.5111 34.7643 57.6895 33.4587 57.5234 31.6715C57.3572 29.8842 58.9069 28.2653 60.9671 28.0737L62.8401 27.8996L62.538 24.6501L60.665 24.8242C56.5446 25.2073 53.4452 28.4453 53.7775 32.0197C54.1098 35.5942 57.753 38.2053 61.8734 37.8222L67.4922 37.2999L68.3985 47.0484L62.7797 47.5708C57.5355 48.0583 53.7473 52.0158 54.1703 56.5651C54.5932 61.1145 59.046 64.3058 64.2902 63.8183L68.0361 63.4701L67.734 60.2206L63.9881 60.5688C60.8041 60.8648 58.1729 58.979 57.9161 56.2169C57.6594 53.4548 59.8978 51.1163 63.0818 50.8203L85.5571 48.7308L85.255 45.4813L72.1444 46.7002L71.2381 36.9516L84.3487 35.7328Z" fill="#FFD54F"/>
<path d="M36.5586 50.0084L30.9398 50.5308L30.0335 40.7823L35.6523 40.2599C39.7728 39.8768 42.8722 36.6389 42.5399 33.0644C42.2076 29.4899 38.5644 26.8788 34.4439 27.2619L28.8251 27.7842L29.1272 31.0337L34.746 30.5114C36.8063 30.3198 38.6278 31.6254 38.794 33.4126C38.9602 35.1999 37.4105 36.8189 35.3502 37.0104L12.875 39.0998L13.1771 42.3493L26.2876 41.1305L27.1939 50.879L14.0834 52.0979L14.3855 55.3474L36.8607 53.2579C40.0447 52.9619 42.6759 54.8477 42.9327 57.6098C43.1894 60.3719 40.951 62.7104 37.767 63.0064L34.0211 63.3547L34.3232 66.6042L38.0691 66.256C43.3133 65.7684 47.1015 61.8109 46.6785 57.2616C46.2556 52.7123 41.8028 49.5209 36.5586 50.0084Z" fill="#FFD54F"/>
</svg>
